Coordinates
version=1
nRows=24
nColumns=38
inDegrees=no

Units are S.I. units (second, meters, Newtons, ...)
If the header above contains a line with 'inDegrees', this indicates whether rotational values are in degrees (yes) or radians (no).

endheader
time	pelvis_tilt	pelvis_list	pelvis_rotation	pelvis_tx	pelvis_ty	pelvis_tz	hip_flexion_r	hip_adduction_r	hip_rotation_r	knee_angle_r	ankle_angle_r	subtalar_angle_r	mtp_angle_r	hip_flexion_l	hip_adduction_l	hip_rotation_l	knee_angle_l	ankle_angle_l	subtalar_angle_l	mtp_angle_l	lumbar_extension	lumbar_bending	lumbar_rotation	arm_flex_r	arm_add_r	arm_rot_r	elbow_flex_r	pro_sup_r	wrist_flex_r	wrist_dev_r	arm_flex_l	arm_add_l	arm_rot_l	elbow_flex_l	pro_sup_l	wrist_flex_l	wrist_dev_l
1.66	-2.89721	1.05458	1.40774	0.726554	-0.314769	0.990975	0.814435	0.0877518	-0.0337391	0.212089	-0.233326	0	0	0.302891	-0.142764	-0.00345598	0.707328	-0.321772	0	0	0.511508	0.135063	-0.156903	-0.133972	-0.282166	0.472584	0.237923	1.5708	0	0	-0.12771	-0.280621	0.267967	0.897285	1.35594	0	0
1.67	-2.8803	1.05891	1.3969	0.726027	-0.328694	0.991961	0.800675	0.0934846	-0.047721	0.225551	-0.212971	0	0	0.326489	-0.151077	0.0204303	0.770084	-0.357566	0	0	0.505014	0.13984	-0.159751	-0.130522	-0.286496	0.478757	0.24749	1.5708	0	0	-0.125061	-0.277172	0.275874	0.883032	1.34298	0	0
1.68	-2.8621	1.06367	1.38663	0.725748	-0.342481	0.992998	0.782916	0.0982414	-0.0608392	0.232727	-0.194221	0	0	0.351235	-0.158528	0.0442034	0.830858	-0.397114	0	0	0.498344	0.143505	-0.162879	-0.128138	-0.290904	0.480539	0.25948	1.5708	0	0	-0.121187	-0.274168	0.286426	0.8679	1.32816	0	0
1.69	-2.84535	1.06753	1.37881	0.725699	-0.356122	0.994102	0.763724	0.101945	-0.0703762	0.235036	-0.177497	0	0	0.377262	-0.163926	0.0670098	0.887116	-0.432068	0	0	0.493527	0.145559	-0.165607	-0.126951	-0.295144	0.480392	0.272666	1.5708	0	0	-0.116575	-0.271571	0.299856	0.851457	1.31299	0	0
1.7	-2.83225	1.07016	1.37425	0.725771	-0.369615	0.995394	0.74504	0.104794	-0.0774581	0.23465	-0.164818	0	0	0.404059	-0.166407	0.0882601	0.938062	-0.447074	0	0	0.491414	0.145988	-0.167302	-0.126073	-0.298495	0.479608	0.284583	1.5708	0	0	-0.111967	-0.268988	0.314542	0.833405	1.3023	0	0
1.71	-2.82255	1.07228	1.37158	0.725803	-0.382994	0.99701	0.727238	0.107397	-0.0834993	0.233797	-0.153208	0	0	0.430161	-0.166781	0.106314	0.983039	-0.442288	0	0	0.490798	0.145532	-0.167109	-0.125889	-0.301753	0.474788	0.297788	1.5708	0	0	-0.106914	-0.266747	0.331959	0.813259	1.29259	0	0
1.72	-2.81483	1.07452	1.36909	0.725685	-0.39636	0.99897	0.709438	0.110446	-0.0871115	0.232047	-0.142394	0	0	0.454544	-0.166347	0.120373	1.02249	-0.417484	0	0	0.490339	0.145117	-0.164098	-0.127291	-0.304475	0.460767	0.312889	1.5708	0	0	-0.100696	-0.265121	0.353971	0.791234	1.28184	0	0
1.73	-2.80994	1.07607	1.36806	0.725457	-0.409721	1.00109	0.692232	0.113249	-0.0900974	0.228574	-0.135156	0	0	0.478457	-0.164626	0.131143	1.05715	-0.381504	0	0	0.491413	0.144022	-0.159585	-0.129286	-0.306079	0.443651	0.32731	1.5708	0	0	-0.0956305	-0.263743	0.376384	0.769211	1.27434	0	0
1.74	-2.80808	1.07822	1.36837	0.725132	-0.423098	1.0034	0.674021	0.115832	-0.0918539	0.22361	-0.129927	0	0	0.500808	-0.161286	0.138624	1.08707	-0.338507	0	0	0.491958	0.142083	-0.152566	-0.132153	-0.306779	0.422812	0.342445	1.5708	0	0	-0.0908549	-0.263647	0.401117	0.748238	1.26797	0	0
1.75	-2.8096	1.08183	1.37011	0.724685	-0.436498	1.00595	0.653838	0.117865	-0.0910899	0.217612	-0.127007	0	0	0.520705	-0.156419	0.142557	1.11115	-0.301158	0	0	0.491397	0.138716	-0.144702	-0.133161	-0.306322	0.405212	0.355464	1.5708	0	0	-0.0887024	-0.26371	0.421153	0.729255	1.26493	0	0
1.76	-2.81383	1.08604	1.37353	0.724216	-0.449791	1.00862	0.632804	0.118972	-0.0884923	0.211584	-0.124584	0	0	0.539573	-0.150795	0.142677	1.12926	-0.265612	0	0	0.489969	0.134214	-0.135917	-0.133567	-0.305603	0.388169	0.36884	1.5708	0	0	-0.0878199	-0.264876	0.440106	0.712594	1.26311	0	0
1.77	-2.81983	1.09094	1.37831	0.723752	-0.463003	1.01139	0.610887	0.119105	-0.0849793	0.205589	-0.123003	0	0	0.556877	-0.144941	0.139901	1.14054	-0.234079	0	0	0.487505	0.128813	-0.126652	-0.133593	-0.304408	0.37121	0.382258	1.5708	0	0	-0.0880131	-0.266901	0.457936	0.697721	1.26386	0	0
1.78	-2.82746	1.09598	1.38475	0.723341	-0.4761	1.0142	0.588678	0.118102	-0.082443	0.198729	-0.122518	0	0	0.57315	-0.138569	0.136084	1.14492	-0.209106	0	0	0.484999	0.122435	-0.118087	-0.132579	-0.302806	0.356751	0.394734	1.5708	0	0	-0.0900296	-0.268608	0.471295	0.684185	1.26581	0	0
1.79	-2.83585	1.10106	1.39182	0.722956	-0.489059	1.01698	0.566212	0.116608	-0.0810239	0.190438	-0.123106	0	0	0.588523	-0.132525	0.131191	1.14306	-0.186037	0	0	0.481834	0.115715	-0.109289	-0.131593	-0.301015	0.341725	0.407938	1.5708	0	0	-0.092657	-0.270266	0.4824	0.671757	1.26701	0	0
1.8	-2.84574	1.10514	1.39921	0.722515	-0.502001	1.01962	0.544389	0.115151	-0.0796284	0.1805	-0.125107	0	0	0.603896	-0.127466	0.123827	1.13509	-0.165688	0	0	0.479732	0.10887	-0.099986	-0.131301	-0.29929	0.326662	0.422497	1.5708	0	0	-0.0970198	-0.2721	0.491012	0.66087	1.26672	0	0
1.81	-2.85536	1.109	1.40632	0.72215	-0.514877	1.02217	0.522438	0.113578	-0.0790655	0.169358	-0.129025	0	0	0.618455	-0.123359	0.115139	1.12172	-0.147341	0	0	0.477455	0.102178	-0.0911471	-0.131463	-0.297839	0.311178	0.438911	1.5708	0	0	-0.102462	-0.273696	0.49692	0.651056	1.26483	0	0
1.82	-2.86434	1.11284	1.41228	0.721826	-0.527676	1.02463	0.500365	0.112205	-0.0788865	0.157771	-0.134717	0	0	0.632048	-0.120509	0.104823	1.10346	-0.131357	0	0	0.474744	0.0962442	-0.0823812	-0.131824	-0.296897	0.295998	0.456807	1.5708	0	0	-0.108348	-0.274462	0.500379	0.640984	1.26186	0	0
1.83	-2.87407	1.11554	1.41756	0.72143	-0.540317	1.02684	0.480185	0.110843	-0.0819489	0.146936	-0.142064	0	0	0.645759	-0.118807	0.0925669	1.0803	-0.117709	0	0	0.472683	0.0908967	-0.0723464	-0.131905	-0.296523	0.284802	0.474398	1.5708	0	0	-0.114495	-0.274834	0.502211	0.631015	1.2583	0	0
1.84	-2.88297	1.1176	1.42164	0.721049	-0.552913	1.02883	0.460542	0.109851	-0.0846687	0.136208	-0.149939	0	0	0.658681	-0.118428	0.0785715	1.05157	-0.105299	0	0	0.47128	0.0861591	-0.0628642	-0.131719	-0.296578	0.275633	0.49222	1.5708	0	0	-0.121541	-0.274897	0.502143	0.621311	1.25328	0	0
1.85	-2.8907	1.11954	1.42408	0.720706	-0.565483	1.03063	0.440602	0.109443	-0.0852863	0.125084	-0.159043	0	0	0.670178	-0.119571	0.0621079	1.01778	-0.0944709	0	0	0.46953	0.0821907	-0.0532188	-0.131955	-0.296847	0.265571	0.511442	1.5708	0	0	-0.128616	-0.274579	0.501236	0.611572	1.24576	0	0
1.86	-2.89848	1.12094	1.42565	0.720359	-0.577966	1.03218	0.421411	0.109216	-0.0854491	0.114126	-0.167691	0	0	0.680615	-0.121808	0.0433079	0.979341	-0.0873658	0	0	0.468108	0.0786679	-0.0438372	-0.131506	-0.297487	0.257553	0.530891	1.5708	0	0	-0.136558	-0.273825	0.498255	0.602441	1.23555	0	0
1.87	-2.90736	1.12301	1.42685	0.719978	-0.590509	1.03358	0.401586	0.108784	-0.0850972	0.103057	-0.17586	0	0	0.688084	-0.124325	0.0229869	0.935287	-0.0818922	0	0	0.465731	0.0753757	-0.0336987	-0.1303	-0.298457	0.251267	0.550086	1.5708	0	0	-0.144412	-0.272789	0.495505	0.592713	1.22413	0	0
1.88	-2.9175	1.12487	1.42828	0.719546	-0.603052	1.03469	0.38235	0.108012	-0.084171	0.0924477	-0.18323	0	0	0.694233	-0.127245	0.000209883	0.886505	-0.0782931	0	0	0.463416	0.0720638	-0.0231422	-0.128704	-0.299624	0.246054	0.569288	1.5708	0	0	-0.152357	-0.271934	0.492986	0.583098	1.21172	0	0
1.89	-2.9274	1.12677	1.42955	0.719124	-0.61561	1.03549	0.363108	0.107226	-0.0835938	0.0821578	-0.189481	0	0	0.698535	-0.130516	-0.0245281	0.832978	-0.0784326	0	0	0.46092	0.0688066	-0.0134377	-0.126916	-0.300748	0.241139	0.588614	1.5708	0	0	-0.16039	-0.271557	0.491099	0.573722	1.1994	0	0
